<?xml version="1.0" standalone="no"?><svg xmlns="http://www.w3.org/2000/svg" viewBox="0 0 1440 320"><path fill="#0099ff" fill-opacity="1" d="M0,224L40,197.3C80,171,160,117,240,90.7C320,64,400,64,480,96C560,128,640,192,720,224C800,256,880,256,960,218.7C1040,181,1120,107,1200,112C1280,117,1360,203,1400,245.3L1440,288L1440,320L1400,320C1360,320,1280,320,1200,320C1120,320,1040,320,960,320C880,320,800,320,720,320C640,320,560,320,480,320C400,320,320,320,240,320C160,320,80,320,40,320L0,320Z"></path></svg>